<svg xmlns="http://www.w3.org/2000/svg" viewBox="0 0 50 44.88">
      <defs>
            <style>.cls-1{fill:#fcbf65;}.cls-2{fill:#75a7d8;}.cls-3,.cls-4{fill:#3f4955;}.cls-4{stroke:#3f4955;stroke-linejoin:round;stroke-width:2px;}</style>
      </defs>
      <g>
            <circle class="cls-1" cx="24.59" cy="8.73" r="3.63"/>
            <rect class="cls-2" x="30.1" y="38.15" width="13.43" height="6.18"/>
            <rect class="cls-2" x="6.46" y="38.95" width="13.97" height="5.37"/>
            <polygon class="cls-1" points="33.86 19.07 29.56 19.07 27.41 20.95 28.22 23.1 34.67 22.57 34.67 19.34 33.86 19.07"/>
            <polygon class="cls-1" points="20.43 20.95 15.32 22.3 14.79 23.91 16.67 25.79 23.11 26.6 23.11 23.91 20.43 20.95"/>
            <rect class="cls-3" x="24.49" y="16.08" width="1.4" height="28.67"/>
            <path class="cls-3" d="M39.88,19.8H10.51a.7.7,0,0,1-.7-.7V3.71a.7.7,0,0,1,.7-.7H39.88a.7.7,0,0,1,.7.7V19.1A.7.7,0,0,1,39.88,19.8ZM11.21,18.4h28v-14h-28Z" transform="translate(0 -3.02)"/>
            <path class="cls-4" d="M17.5,4.41" transform="translate(0 -3.02)"/>
            <path class="cls-4" d="M32.88,4.41" transform="translate(0 -3.02)"/>
            <path class="cls-4" d="M32.88,18.4" transform="translate(0 -3.02)"/>
            <path class="cls-4" d="M17.5,18.4" transform="translate(0 -3.02)"/>
            <rect class="cls-3" x="15.4" y="7.69" width="1.4" height="1.4"/>
            <rect class="cls-3" x="18.2" y="7.69" width="1.4" height="1.4"/>
            <rect class="cls-3" x="33.58" y="7.69" width="1.4" height="1.4"/>
            <rect class="cls-3" x="30.79" y="7.69" width="1.4" height="1.4"/>
            <path class="cls-3" d="M35,17H29.39V15.6h5.3l1.69-1.69V12.11h1.4v2.1a.7.7,0,0,1-.2.49l-2.1,2.1A.7.7,0,0,1,35,17Z" transform="translate(0 -3.02)"/>
            <path class="cls-3" d="M21,17H15.4a.7.7,0,0,1-.49-.2l-2.1-2.1a.7.7,0,0,1-.2-.49v-2.1H14v1.81l1.69,1.69H21Z" transform="translate(0 -3.02)"/>
            <path class="cls-3" d="M14,10.71H12.6V8.61a.7.7,0,0,1,.2-.49L14.91,6a.7.7,0,0,1,.49-.2H21v1.4h-5.3L14,8.9Z" transform="translate(0 -3.02)"/>
            <path class="cls-3" d="M37.78,10.71h-1.4V8.9L34.69,7.21h-5.3V5.81H35a.7.7,0,0,1,.49.2l2.1,2.1a.7.7,0,0,1,.2.49Z" transform="translate(0 -3.02)"/>
            <path class="cls-3" d="M25.19,15.6a4.2,4.2,0,1,1,4.2-4.2A4.2,4.2,0,0,1,25.19,15.6Zm0-7a2.8,2.8,0,1,0,2.8,2.8A2.8,2.8,0,0,0,25.19,8.61Z" transform="translate(0 -3.02)"/>
            <path class="cls-3" d="M32.88,26.79H28a.7.7,0,0,1-.7-.7V24a2.8,2.8,0,0,1,2.8-2.8H35a.7.7,0,0,1,.7.7V24A2.8,2.8,0,0,1,32.88,26.79Zm-4.2-1.4h4.2a1.4,1.4,0,0,0,1.4-1.4V22.6h-4.2a1.4,1.4,0,0,0-1.4,1.4Z" transform="translate(0 -3.02)"/>
            <path class="cls-3" d="M22.4,29.59H17.5a2.8,2.8,0,0,1-2.8-2.8v-2.1a.7.7,0,0,1,.7-.7h4.9a2.8,2.8,0,0,1,2.8,2.8v2.1A.7.7,0,0,1,22.4,29.59Zm-6.29-4.2v1.4a1.4,1.4,0,0,0,1.4,1.4h4.2v-1.4a1.4,1.4,0,0,0-1.4-1.4Z" transform="translate(0 -3.02)"/>
            <path class="cls-3"
                  d="M48.29,17.54c.21.59.41,1.19.56,1.8a41.65,41.65,0,0,1,1.09,5.3A18,18,0,0,1,50,27c0,1.21,0,2.41-.13,3.61a14.8,14.8,0,0,1-.22,1.8,2,2,0,0,1-.57,1.07q-3.64,3.62-7.26,7.25a1.48,1.48,0,0,0-.33.45c0,.09,0,.13.08.13h1.33a.62.62,0,0,1,.67.67c0,1.75,0,3.51,0,5.26a1.38,1.38,0,0,1-.12.44l-.13.13a1.83,1.83,0,0,1-.82.1H30.34a1.49,1.49,0,0,1-.58-.08l-.22-.22a1.66,1.66,0,0,1-.08-.38q0-2.63,0-5.26a.63.63,0,0,1,.67-.66h1.3c.13,0,.17,0,.17-.17,0-1.09,0-2.17,0-3.26a7.36,7.36,0,0,1,.3-2.12A4,4,0,0,1,32.85,34l2.66-2.66a2,2,0,0,1,.36-.28,3.44,3.44,0,0,1,1.29-.42l1.18-.18a.69.69,0,0,0,.41-.21q1.35-1.36,2.71-2.71a3,3,0,0,1,1.95-.92c.09,0,.11,0,.14-.12l.83-2.61a.45.45,0,0,0,0-.29A10.41,10.41,0,0,1,44,22.07a4.14,4.14,0,0,1,.59-3,2.79,2.79,0,0,0,.31-.46l0,0a2.65,2.65,0,0,0,.49-.45,3.56,3.56,0,0,1,1.15-.68,2.16,2.16,0,0,1,1.49-.09ZM44.52,36.23l3.65-3.64a.82.82,0,0,0,.24-.44,11.55,11.55,0,0,0,.17-1.26c.15-1.8.17-3.61.16-5.42a5.54,5.54,0,0,0,0-.81,44.46,44.46,0,0,0-1.29-5.85c-.1-.34-.1-.34-.44-.2a2.92,2.92,0,0,0-1.76,2.81,8.8,8.8,0,0,0,.44,2,.89.89,0,0,1,0,.57c-.3.92-.59,1.85-.88,2.77a.12.12,0,0,0,.06.17,2.35,2.35,0,0,1,1.11,2.36A2.92,2.92,0,0,1,45,31.08c-.75.77-1.52,1.52-2.28,2.28l-1.95,2c-.09.09-.14.09-.23,0s-.42-.44-.64-.64-.1-.16,0-.27l4.16-4.15a2.05,2.05,0,0,0,.51-.76,1.16,1.16,0,0,0-1.49-1.55,2,2,0,0,0-.81.52c-.91.91-1.82,1.81-2.72,2.73a1.68,1.68,0,0,1-.86.48l-.49.09c-.42.06-.84.1-1.25.2a1.44,1.44,0,0,0-.71.4c-.82.84-1.66,1.67-2.49,2.5a1.66,1.66,0,0,0-.27.35,5.13,5.13,0,0,0-.64,2.52c0,1.13,0,2.27,0,3.4,0,.15,0,.17.18.17h7c.07,0,.09,0,.1-.09a2.32,2.32,0,0,1,.72-1.35Zm-2.23,6.33H30.86c-.12,0-.14,0-.14.14q0,1.89,0,3.78c0,.14,0,.17.17.17H42.2c.08,0,.09,0,.09-.1q0-1.94,0-3.89S42.29,42.6,42.29,42.56Z"
                  transform="translate(0 -3.02)"/>
            <path class="cls-3" d="M35,45.6H33c-.08,0-.12,0-.11-.1,0-.33,0-.67,0-1,0-.08,0-.1.1-.1h1.86c.07,0,.11,0,.11.09,0,.34,0,.68,0,1A.87.87,0,0,1,35,45.6Z" transform="translate(0 -3.02)"/>
            <path class="cls-3"
                  d="M1.93,17.32a2.16,2.16,0,0,1,1.49.09,3.56,3.56,0,0,1,1.15.68,2.65,2.65,0,0,0,.49.45l0,0a2.79,2.79,0,0,0,.31.46,4.14,4.14,0,0,1,.59,3,10.41,10.41,0,0,1-.36,1.54.45.45,0,0,0,0,.29l.83,2.61c0,.07,0,.11.14.12a3,3,0,0,1,1.95.92q1.37,1.35,2.71,2.71a.69.69,0,0,0,.41.21l1.18.18a3.44,3.44,0,0,1,1.29.42,2,2,0,0,1,.36.28L17.15,34a4,4,0,0,1,.95,1.76,7.36,7.36,0,0,1,.3,2.12c0,1.09,0,2.17,0,3.26,0,.14,0,.17.17.17h1.3a.63.63,0,0,1,.67.66q0,2.63,0,5.26a1.66,1.66,0,0,1-.08.38l-.22.22a1.49,1.49,0,0,1-.58.08H7.52a1.83,1.83,0,0,1-.82-.1l-.13-.13a1.38,1.38,0,0,1-.12-.44c0-1.75,0-3.51,0-5.26a.62.62,0,0,1,.67-.67H8.45c.12,0,.12,0,.08-.13a1.48,1.48,0,0,0-.33-.45Q4.57,37.1.94,33.47A2,2,0,0,1,.37,32.4a14.8,14.8,0,0,1-.22-1.8C.06,29.4,0,28.19,0,27a18,18,0,0,1,0-2.35,41.65,41.65,0,0,1,1.09-5.3c.16-.61.35-1.21.56-1.8ZM9.11,39.86a2.32,2.32,0,0,1,.72,1.35c0,.06,0,.1.1.09h7c.13,0,.18,0,.18-.17,0-1.13,0-2.27,0-3.4a5.13,5.13,0,0,0-.64-2.52,1.66,1.66,0,0,0-.27-.35c-.83-.83-1.67-1.66-2.49-2.5A1.44,1.44,0,0,0,13,32c-.41-.1-.83-.14-1.25-.2l-.49-.09a1.68,1.68,0,0,1-.86-.48c-.9-.92-1.81-1.82-2.72-2.73a2,2,0,0,0-.81-.52,1.16,1.16,0,0,0-1.49,1.55,2.05,2.05,0,0,0,.51.76l4.16,4.15c.11.1.12.16,0,.27s-.44.42-.64.64-.14.1-.23,0l-1.95-2C6.49,32.6,5.72,31.84,5,31.08a2.92,2.92,0,0,1-.88-1.74A2.35,2.35,0,0,1,5.19,27a.12.12,0,0,0,.06-.17C5,25.88,4.67,25,4.37,24a.89.89,0,0,1,0-.57,8.8,8.8,0,0,0,.44-2A2.92,2.92,0,0,0,3,18.61c-.33-.14-.34-.14-.44.2a44.46,44.46,0,0,0-1.29,5.85,5.54,5.54,0,0,0,0,.81c0,1.81,0,3.61.16,5.42a11.55,11.55,0,0,0,.17,1.26.82.82,0,0,0,.24.44l3.65,3.64Zm-1.4,2.8q0,1.94,0,3.89c0,.07,0,.11.09.1H19.11c.14,0,.17,0,.17-.17q0-1.89,0-3.78c0-.11,0-.14-.14-.14H7.71S7.71,42.63,7.71,42.66Z"
                  transform="translate(0 -3.02)"/>
            <path class="cls-3" d="M15,45.6H17c.08,0,.12,0,.11-.1,0-.33,0-.67,0-1,0-.08,0-.1-.1-.1H15.13c-.07,0-.11,0-.11.09,0,.34,0,.68,0,1A.87.87,0,0,0,15,45.6Z" transform="translate(0 -3.02)"/>
      </g>
</svg>
