<svg xmlns="http://www.w3.org/2000/svg" viewBox="0 0 48.33 50">
      <defs>
            <style>.cls-1{fill:#75a7d8;}.cls-2{fill:#fcbf65;}.cls-3{fill:#3f4955;}</style>
      </defs>
      <g>
            <path class="cls-1" d="M15.05,26.82V47.61H35.84V26.82Zm18.2,17.9H18.33V29.5H33.25Z" transform="translate(-0.64)"/>
            <polygon class="cls-2" points="21.75 4.87 18.55 5.86 14.78 10.09 13.62 14.45 13.62 16.77 16.81 15.9 20.3 17.64 22.04 16.77 24.94 15.9 29 17.93 31.32 16.48 34.8 16.48 35.97 17.35 35.97 13.29 34.23 9.51 30.16 5.74 24.07 4.29 21.75 4.87"/>
            <path class="cls-3"
                  d="M46.11,20.22a2.85,2.85,0,0,0-.82.12,4.35,4.35,0,0,0-7.26,0h-.1a2.53,2.53,0,0,0-2.53,2.53,2.49,2.49,0,0,0,.15.84.63.63,0,0,0,.6.42H48.31a.63.63,0,0,0,.62-.53,2.85,2.85,0,0,0-2.82-3.34Zm-9.45,2.6a1.25,1.25,0,0,1,1.55-1.23.63.63,0,0,0,.7-.32,3.08,3.08,0,0,1,5.53.13.63.63,0,0,0,.88.28,1.6,1.6,0,0,1,2.36,1.13Zm0,6.32V27.86A1.87,1.87,0,0,0,34.79,26H30.11l7.35-8.53,0,0,0,0,.05-.1,0,0a.63.63,0,0,0,0-.15h0c0-.34,0-.68,0-1A12.2,12.2,0,0,0,25.9,3.88a4.37,4.37,0,0,0-.77,0,12.15,12.15,0,0,0-8,3.34,4.28,4.28,0,0,0-3.86-.41A6.76,6.76,0,0,0,.64,10.23a7.21,7.21,0,0,0,.13,1.34.63.63,0,0,0,.62.51H13.95a12.13,12.13,0,0,0-.67,4c0,.35,0,.69,0,1a.63.63,0,0,0,.29.47L20.87,26H16.44a1.87,1.87,0,0,0-1.87,1.87V46.21a1.87,1.87,0,0,0,1.87,1.87h.63v1.29a.63.63,0,0,0,.63.63h3.79a.63.63,0,0,0,.63-.63V48.08h7v1.29a.63.63,0,0,0,.63.63H33.5a.63.63,0,0,0,.63-.63V48.08h.66a1.87,1.87,0,0,0,1.87-1.87V44.94a.63.63,0,0,0,.63-.63V41.15a.63.63,0,0,0-.63-.63v-7a.63.63,0,0,0,.63-.63V29.78A.63.63,0,0,0,36.66,29.15ZM28.44,26h-.62l2.41-6.79a.63.63,0,0,0,.09-.13,4.21,4.21,0,0,1,3.77-2.37,4.13,4.13,0,0,1,2,.48Zm-2,0h-2l-2.61-7.36a4.18,4.18,0,0,1,7.14.17Zm9.91-10a5.43,5.43,0,0,0-5.43.48,18.14,18.14,0,0,0,.41-5.29,8.88,8.88,0,0,0-1.77-5l-.24-.27A10.94,10.94,0,0,1,36.4,15.95ZM23.69,5.7a3.2,3.2,0,0,1,1.54-.55h.56a3.17,3.17,0,0,1,1.53.56,6.3,6.3,0,0,1,1.3,1.21,7.64,7.64,0,0,1,1.49,4.33,18.23,18.23,0,0,1-.64,6,5.43,5.43,0,0,0-8-.15,18.06,18.06,0,0,1-.6-5.87,7.64,7.64,0,0,1,1.49-4.33A6.2,6.2,0,0,1,23.69,5.7ZM1.94,10.82a5.58,5.58,0,0,1,0-.59A5.49,5.49,0,0,1,12.38,7.91a.63.63,0,0,0,.88.28,3.1,3.1,0,0,1,2.94,0,12.22,12.22,0,0,0-1.73,2.66Zm13.51.91,2.18-3.26a11,11,0,0,1,4-2.64l-.26.3a8.88,8.88,0,0,0-1.77,5A18.16,18.16,0,0,0,20,16.45a5.46,5.46,0,0,0-5.48-.5A10.85,10.85,0,0,1,15.44,11.74Zm-.51,5.43a4.13,4.13,0,0,1,1.92-.47A4.18,4.18,0,0,1,20.58,19a.62.62,0,0,0,.16.19L23.16,26h-.62Zm5.93,31.57H18.33V48.1h2.53Zm12,0H30.34V48.1h2.53Zm2.53-2.53a.61.61,0,0,1-.61.61H16.44a.61.61,0,0,1-.61-.61V27.86a.61.61,0,0,1,.61-.61H34.79a.61.61,0,0,1,.61.61ZM26.15,31.83v-.16a.55.55,0,0,0-1.09,0v.17a5.17,5.17,0,0,0-4.17,7.28l-.2.12a.55.55,0,0,0,.55.94l.2-.12a5.17,5.17,0,0,0,8.34,0l.19.11a.55.55,0,0,0,.55-.94l-.18-.11a5.17,5.17,0,0,0-4.19-7.29Zm-4.31,6.73a4.09,4.09,0,0,1,3.22-5.62v3a1.18,1.18,0,0,0-.64,1s0,0,0,.06Zm3.78,2.52a4.09,4.09,0,0,1-3.23-1.58L25,38a1.16,1.16,0,0,0,1.25,0l2.6,1.52A4.08,4.08,0,0,1,25.61,41.09Zm3.77-2.51L26.78,37s0,0,0-.06a1.18,1.18,0,0,0-.64-1v-3a4.09,4.09,0,0,1,3.24,5.64Zm2.84-10H19a1.83,1.83,0,0,0-1.83,1.83V43.65A1.83,1.83,0,0,0,19,45.48H32.23a1.83,1.83,0,0,0,1.83-1.83V30.42A1.83,1.83,0,0,0,32.23,28.59Zm.56,15.06a.56.56,0,0,1-.56.56H19a.56.56,0,0,1-.56-.56V30.42a.56.56,0,0,1,.56-.56H32.23a.56.56,0,0,1,.56.56ZM22.86.71a.71.71,0,1,1,.71.71A.71.71,0,0,1,22.86.71ZM12.09,45.58a.71.71,0,1,1-.71-.71A.71.71,0,0,1,12.09,45.58Zm30.33-5.21a.71.71,0,1,1-.71-.71A.71.71,0,0,1,42.43,40.36ZM8.3,38a.71.71,0,1,1-.71-.71A.71.71,0,0,1,8.3,38ZM24.84.71a.63.63,0,0,1,.63-.63A16,16,0,0,1,40.91,11.92a.63.63,0,0,1-.45.77l-.16,0a.63.63,0,0,1-.61-.47A14.74,14.74,0,0,0,25.47,1.35.63.63,0,0,1,24.84.71ZM10.78,43.52V32.46a.63.63,0,1,1,1.26,0V43.52a.63.63,0,1,1-1.26,0Zm30.33-5.21V27.25a.63.63,0,1,1,1.26,0V38.31a.63.63,0,0,1-1.26,0ZM7,35.94V16.51a.63.63,0,0,1,1.26,0V35.94a.63.63,0,1,1-1.26,0Z"
                  transform="translate(-0.64)"/>
      </g>
</svg>
