<svg xmlns="http://www.w3.org/2000/svg" viewBox="0 0 49.83 46.69">
      <defs>
            <style>.cls-1{fill:#75a7d8;}.cls-2{fill:#fcbf65;}.cls-3{fill:#3f4955;}</style>
      </defs>
      <g>
            <path class="cls-1" d="M47.59,24,47,18.06l-3-4.2-4.27-2.8h-4l-1.08,1.88-.61,1.42-2.62.74-2.15-.81L25,20.21l-6.54,3.14.17.22a.78.78,0,0,1,.56-.13.67.67,0,0,1,1.06-.1,6,6,0,0,1,1.51,3.2l1.88-.94,6.73-6.19v7l11.31.27V17.25l2.42,2.15v5.11Z" transform="translate(-0.09 -1.28)"/>
            <ellipse class="cls-2" cx="10.08" cy="7.76" rx="4.31" ry="4.17"/>
            <path id="_03-2" data-name="03" class="cls-3"
                  d="M39.51,48a.66.66,0,0,1,0-1.32A.66.66,0,0,1,39.51,48ZM37.8,46.72H7.32a.59.59,0,0,0,0,1.17H37.8A.59.59,0,0,0,37.8,46.72ZM8.43,25.13C8,23.58,7.37,21.22,10.37,20.4a2.75,2.75,0,0,1,3,.68,6.11,6.11,0,0,1,1,2.41,3.78,3.78,0,0,1-.2,2.61C13,28.82,9.27,28.18,8.43,25.13Zm1.13-.31a2.61,2.61,0,0,0,1,1.49,1.7,1.7,0,0,0,2.59-.71,2.61,2.61,0,0,0,.13-1.8c-.49-1.79-.85-2.75-2.63-2.26S9.08,23,9.56,24.82Zm40.35,2.26a.59.59,0,1,1-1.17,0,1.75,1.75,0,0,0-.59-1.31,2.34,2.34,0,0,1-2.92,2.12V44.38h2.34a.59.59,0,1,1,0,1.17c-34.52,0-33.12,0-33.12,0-4.72,0-7,0-13.77,0a.59.59,0,0,1,0-1.17H7.76a2,2,0,0,1,.56-1.8V35.93c0-.14,0-3.75,0-3.9a.55.55,0,0,0-.55-.55H1.85a1.76,1.76,0,1,1,0-3.52H10l.13,0h0a.58.58,0,0,1,.17.07h0a3.16,3.16,0,0,0,3.11,0l.27-.17h0S18,23.53,18,23.53h0l0,0a1.51,1.51,0,0,1,.24-.17,2.2,2.2,0,0,1,.62-.27,13.63,13.63,0,0,0,9.28-9.18c-2.41-2.43-2.82-6.24-1.49-8.26a5.24,5.24,0,0,1,6.53-1.76l0,0C36.05,3.2,38,7.22,36,9.37c0,.15,0,.29,0,.43h.39A11.74,11.74,0,0,1,48.15,21.52V24.4A2.92,2.92,0,0,1,49.91,27.09ZM34.11,5a.59.59,0,0,1-.22.29,3.41,3.41,0,0,1-1,1.8,1.54,1.54,0,0,0,.32.67,1.62,1.62,0,0,1,2.35-.89A2.13,2.13,0,0,0,34.11,5Zm-4.65,8.45c2.28,1.9,4.88,0,5.37-2.82a7.88,7.88,0,0,0,0-1.53.6.6,0,0,1,.05-.2l.05-.09c.23-.33.29-.65.15-.85s-.76-.16-.92.93a.59.59,0,0,1-.86.42c-1.46-.81-1.79-2.48-1.34-2.88.25-.23.89-1,.78-1.5a4.11,4.11,0,0,0-5,1.34C26.64,7.87,27,11.42,29.46,13.46Zm-8,9.9.83,2.2a17.69,17.69,0,0,0,7.76-7.12.58.58,0,0,1,.19-.14.56.56,0,0,1,.22-.05h.15a.61.61,0,0,1,.2.08.61.61,0,0,1,.15.15.59.59,0,0,1,.09.2.53.53,0,0,1,0,.14v6.79H41.71V16.88a7,7,0,0,0-1.49-1.28.59.59,0,1,1,.63-1,8.22,8.22,0,0,1,3.76,6.2c0,.47,0,.52,0,3.06H47V21.52A10.57,10.57,0,0,0,36,11c-.68,3.54-4,5.59-6.78,3.74A14.92,14.92,0,0,1,21.49,23.36Zm7.26,19.26h.68a.49.49,0,0,0,.49-.49c0-2.09,0-18,0-21.32a18.18,18.18,0,0,1-7.71,6.07c-.2.08-1.61.59-2,.71a2.29,2.29,0,0,1-1.22,0l-2.67,2.66c-1.1,1.25-.91,2.35-.91,5.52a.58.58,0,0,1,0,.16v6.65a2,2,0,0,1,.56,1.8H26.48A2.35,2.35,0,0,1,28.75,42.62ZM18.65,24.56a1.14,1.14,0,0,0-.28.69.66.66,0,0,0,0,.17.48.48,0,0,0,0,.12,1.16,1.16,0,0,0,.65.84,1.15,1.15,0,0,0,.82.07c.4-.11,1-.31,1.37-.47l-.83-2.17C19,24.33,19.1,24.13,18.65,24.56ZM15,28.19l.83.83,2-2a2.43,2.43,0,0,1-.61-1v0Zm-5.19.94H8.33v1.28A1.72,1.72,0,0,1,9.47,32v3a.58.58,0,0,1,0,.13H14.2c0-2.47-.19-3.78.87-5.29L14.15,29A4.31,4.31,0,0,1,9.83,29.14Zm-2.67,0H1.85a.59.59,0,0,0,0,1.17H7.15ZM9.49,42.06h1.77V39.15a.59.59,0,0,1,1.17,0v2.91h1.75v-5.7H9.49ZM9.1,44.38h5.46c.21-.08.2-.24.2-.44a.71.71,0,0,0-.71-.71H12.43a.59.59,0,0,1-1.17,0H9.61a.71.71,0,0,0-.71.71v.15A.32.32,0,0,0,9.1,44.38Zm32.6-.22V26.79H31.09c0,15.2,0,13.48,0,15.34a1.66,1.66,0,0,1-1.66,1.66c-.68,0-1.3-.09-1.7.59h4.09a2.35,2.35,0,0,1,2.27-1.76h.68a.49.49,0,0,0,.49-.49V29.72a.59.59,0,0,1,1.17,0V42.13a1.66,1.66,0,0,1-1.66,1.66h-.68a1.17,1.17,0,0,0-1,.59C42,44.38,41.71,44.47,41.71,44.16Zm2.34.22V27.17a2.32,2.32,0,0,1-.59-1.55v-4.1a7,7,0,0,0-.59-2.79c0,12.08,0,25.39,0,25.65ZM47,25.62V25H44.64v.59a1.17,1.17,0,1,0,2.34,0ZM8,4.72a4.79,4.79,0,1,1,.3,8.84A4.78,4.78,0,0,1,8,4.72Zm.71,7.74A3.61,3.61,0,1,0,6.59,7.81,3.62,3.62,0,0,0,8.71,12.46Zm3.58-8.7c.52,0,.57-.43,1-1.69a.59.59,0,0,0-1.1-.41L11.73,3A.59.59,0,0,0,12.28,3.76Zm-4.82.16A.59.59,0,0,0,8,3.1L7.42,1.82a.59.59,0,1,0-1.07.48C6.93,3.58,7,3.93,7.46,3.93Zm-4.91,3,1.31.49a.59.59,0,0,0,.41-1.1L3,5.82a.59.59,0,0,0-.41,1.1ZM4,11.15l-1.27.58A.59.59,0,0,0,3,12.85c.2,0,.25-.06,1.52-.63A.59.59,0,0,0,4,11.15Zm3.22,3.62-.49,1.31a.59.59,0,0,0,1.1.41l.49-1.31A.59.59,0,0,0,7.21,14.77Zm6.48,1.07-.58-1.27a.59.59,0,0,0-1.07.48l.58,1.27A.59.59,0,0,0,13.7,15.84Zm2.39-5.1a.59.59,0,0,0-.41,1.1,14.82,14.82,0,0,0,1.52.53.59.59,0,0,0,.21-1.14Zm-.37-3.68c.2,0,.25-.06,1.52-.63a.59.59,0,0,0-.48-1.07l-1.27.58a.59.59,0,0,0,.24,1.12Zm31.86,7.8a.66.66,0,0,0,0-1.32A.66.66,0,0,0,47.57,14.86Zm-8.75-6A13,13,0,0,1,46.2,13.1a.59.59,0,0,0,.89-.77,14.13,14.13,0,0,0-8-4.65.59.59,0,0,0-.22,1.15Z"
                  transform="translate(-0.09 -1.28)"/>
      </g>
</svg>
