<svg xmlns="http://www.w3.org/2000/svg" viewBox="0 0 49.85 49.9">
      <defs>
            <style>.cls-1{fill:#75a7d8;}.cls-2{fill:#fcbf65;}.cls-3{fill:#3f4955;}</style>
      </defs>
      <g>
            <path class="cls-1" d="M2.2,32.31v11H20.66v-11ZM13,38.12l0,0,0,0a11.88,11.88,0,0,1-.83,1.17,1,1,0,0,1-1.48-.19,4.4,4.4,0,0,1-.26-.51A2.55,2.55,0,0,1,9,37.77a1,1,0,0,1,0-1.33,2.3,2.3,0,0,1,2.56-.8,1,1,0,0,1,1.53.76,9.7,9.7,0,0,1,.18,1.07A1.09,1.09,0,0,1,13,38.12Z" transform="translate(-0.11 -0.1)"/>
            <path class="cls-2" d="M32.88,27.32l2.34.88,3.22-.88,2.64.88,2.64-.88L43.14,30l-1.46,1.46L42,33.77l4.39,4.69,2.05,6.15L47.53,49l-15.43.44a4.19,4.19,0,0,1-3-.44c-1.46-.88-.88-3.81-.88-3.81l2.34-7,4.1-3.22.29-2.34V31.13l-2.05-1.46Z" transform="translate(-0.11 -0.1)"/>
            <path class="cls-3" d="M42.42,33.52h2.16V32H42.12a1.41,1.41,0,0,1,.29-.43l1.75-1.79a.78.78,0,0,0,.22-.54V27.38a.78.78,0,0,0-1-.74L41,27.35l-2.45-.71a.77.77,0,0,0-.43,0l-2.56.72-2.51-.72a.78.78,0,0,0-1,.75v1.89a.78.78,0,0,0,.28.6l2,1.67a1.37,1.37,0,0,1,.29.42H32.13v1.56h2.25l-3,3a12.66,12.66,0,0,0-3.73,9h1.56a11.11,11.11,0,0,1,3.27-7.91L35.5,34.6a2.91,2.91,0,0,0,.68-1.08h.89l-1.36,3,.71.32.71.33.15-.33,1.12-2.44,1.1,2.44.14.32.71-.32.71-.32-1.34-3h.91a2.91,2.91,0,0,0,.68,1.08l3.07,3.07a11.1,11.1,0,0,1,3.27,7.91,2.87,2.87,0,0,1-2.87,2.87H32V50H44.78a4.43,4.43,0,0,0,4.42-4.42,12.66,12.66,0,0,0-3.73-9ZM36.3,32a3,3,0,0,0-.86-1.58l-1.81-1.49v-.49l1.73.5a.78.78,0,0,0,.43,0l2.56-.72,2.46.72a.77.77,0,0,0,.44,0l1.57-.47v.45L41.3,30.44A2.92,2.92,0,0,0,40.49,32Z" transform="translate(-0.11 -0.1)"/>
            <path class="cls-3" d="M25.8,3.22V.1H24.24V3.22C10.65,3.56.11,12.66.11,24.23l.06,1.42,1.21-.81a7.43,7.43,0,0,1,8.33,0l.43.29.58-.39a7.45,7.45,0,0,1,8.24,0l.57.37,1.73-1a7.43,7.43,0,0,1,3-.93V46a3.88,3.88,0,0,0,7,2.37A3.86,3.86,0,0,0,32,46H30.47a2.34,2.34,0,1,1-4.67,0V23.24a7.44,7.44,0,0,1,2.94,1l1.58.93L31,24.7a7.46,7.46,0,0,1,8.19.07l.59.4.61-.4a7.45,7.45,0,0,1,8.25,0l1.3.88V24.23C50,12.66,39.4,3.55,25.8,3.22M1.72,22.87c.64-8,6.9-14.61,15.63-17.07-4.54,3.35-7.63,9.65-8,17.12a9,9,0,0,0-7.68-.05m9.24,0c.42-8.94,5-16.06,11.18-17.74C20,8.51,18.91,15.77,18.79,22.91a8.82,8.82,0,0,0-7.83,0m9.53-.08-.13.08c.19-11.65,2.76-18.1,4.57-18.12h0c1.81,0,4.38,6.46,4.57,18.1a9,9,0,0,0-9-.06m10.58.1C31,15.75,29.87,8.47,27.71,5.12,33.92,6.75,38.55,13.89,39,22.87a9,9,0,0,0-7.91,0m9.47,0c-.33-7.5-3.45-13.83-8-17.17,8.82,2.41,15.17,9,15.82,17.11a9,9,0,0,0-7.8.06" transform="translate(-0.11 -0.1)"/>
            <path class="cls-3" d="M.94,43.69H21.22V31.24H.94ZM2.5,32.8H19.66v9.34H2.5Z" transform="translate(-0.11 -0.1)"/>
            <path class="cls-3" d="M11.11,34.34a3.11,3.11,0,1,0,3.11,3.11,3.12,3.12,0,0,0-3.11-3.11m0,4.67a1.56,1.56,0,1,1,1.56-1.56A1.56,1.56,0,0,1,11.11,39" transform="translate(-0.11 -0.1)"/>
            <rect class="cls-3" x="15.64" y="36.54" width="2.31" height="1.56"/>
            <rect class="cls-3" x="3.94" y="36.59" width="2.36" height="1.56"/>
            <polygon class="cls-3" points="0.83 45.93 0.83 46.7 21.11 46.7 21.11 45.93 21.11 45.15 0.83 45.15 0.83 45.93"/>
            <polygon class="cls-3" points="0.83 49.04 0.83 49.82 21.11 49.82 21.11 49.04 21.11 48.26 0.83 48.26 0.83 49.04"/>
      </g>
</svg>
