<svg xmlns="http://www.w3.org/2000/svg" viewBox="0 0 49.7 49.75">
      <defs>
            <style>.cls-1{fill:#fcbf65;}.cls-2{fill:#75a7d8;}.cls-3{fill:#3f4955;}</style>
      </defs>
      <g>
            <polygon class="cls-1" points="37.4 24.01 34.16 20.77 30.62 21.36 27.97 24.01 29.45 26.37 31.51 27.55 34.16 26.96 37.4 24.01"/>
            <polygon class="cls-1" points="19.73 18.12 16.2 16.36 12.37 17.24 10.6 18.71 11.48 20.77 15.02 22.54 18.55 21.95 20.02 19.89 19.73 18.12"/>
            <polygon class="cls-1" points="13.84 32.85 17.84 28.94 24.73 27.55 30.92 30.2 35.04 32.85 37.4 35.5 32.69 38.73 25.62 37.26 27.97 33.44 18.55 33.14 13.84 32.85"/>
            <path class="cls-2" d="M35.51,1.34a3.47,3.47,0,0,1,.63,2.39l.19.15c.77.65-.34,1.75-1.11,1.11l-.16-.12a.66.66,0,0,1-.44-.34,7.57,7.57,0,0,1-2.47-2.34.88.88,0,0,1,0-.84H17.87a.7.7,0,0,1-.11.54,7.15,7.15,0,0,1-3.21,2.77.75.75,0,0,1-.2.09.67.67,0,0,1-.6-.08.64.64,0,0,1-.37-.47,2.82,2.82,0,0,1,.47-2.86h-1V8.4a.72.72,0,0,1,1.26.05,7,7,0,0,0,1.61,1.94,4.7,4.7,0,0,1,1.51,1.29.82.82,0,0,1-.8,1.33h0c-1.12.13-3.38-.36-2.8-2a1.18,1.18,0,0,1,.22-.38,5.54,5.54,0,0,1-.95-1.23v4.31H34.67a7.42,7.42,0,0,1-1.89-.42.8.8,0,0,1-.55-1,5.06,5.06,0,0,1,2.48-2.77l.1-.21c.45-.9,1.79-.11,1.35.79l-.11.23a3.55,3.55,0,0,1-.06,2,.81.81,0,0,1-.22,1.33h.89V1.34ZM26.07,8.19a.78.78,0,0,1-.54.53,5,5,0,0,1-2.18.15.64.64,0,0,1-.49-.35A.62.62,0,0,1,22.51,8c0-.07,0-.14,0-.21h0v0A3.77,3.77,0,0,1,23,5.65a.66.66,0,0,1,.73-.38,4.1,4.1,0,0,1,.72-.49.81.81,0,0,1,1.18.8A1.1,1.1,0,0,1,26.9,6.8,1.59,1.59,0,0,1,26.07,8.19Z" transform="translate(0.15)"/>
            <path class="cls-3" d="M24.62,3.87A3.1,3.1,0,1,0,27.72,7a3.11,3.11,0,0,0-3.1-3.1m0,4.66A1.55,1.55,0,1,1,26.17,7a1.55,1.55,0,0,1-1.55,1.55" transform="translate(0.15)"/>
            <rect class="cls-3" x="17.06" y="6.16" width="3.08" height="1.55"/>
            <rect class="cls-3" x="29.45" y="6.21" width="3.13" height="1.55"/>
            <path class="cls-3"
                  d="M49.55,34.62a1.29,1.29,0,0,0-.46-1.08,6.35,6.35,0,0,0-7.48-.79l-4,1.95a17.06,17.06,0,0,0-12.6-6.9l.62-1.53A4.38,4.38,0,0,0,26,24.92h.87A6.25,6.25,0,0,0,38,24.47l.15-.32L38,23.82a6.25,6.25,0,0,0-11.16-.45h-1a4.43,4.43,0,0,0-1.57-2.32,2.91,2.91,0,0,1-.59-4L26,14h11V0H12.21V14H24.08l-1.67,2.16a4.39,4.39,0,0,0-.83,2.58h-.72a6.25,6.25,0,0,0-11.16.45l-.15.32.15.32a6.25,6.25,0,0,0,11.16.45h1a4.4,4.4,0,0,0,1.47,2,2.9,2.9,0,0,1,.93,3.39l-.85,2.1a17,17,0,0,0-10.65,4.16h-1a6.43,6.43,0,0,0-4.57,1.89L-.15,41.11v8.65H7.74L34.2,44.64,49,35.6a1.27,1.27,0,0,0,.6-1M32.3,21.7a4.73,4.73,0,0,1,4.13,2.45,4.71,4.71,0,0,1-8.26,0A4.73,4.73,0,0,1,32.3,21.7M13.76,9.43a3.86,3.86,0,0,1,3,3h-3Zm0-1.57V6.11a5.4,5.4,0,0,0,4.56-4.56H31a5.4,5.4,0,0,0,4.56,4.56V7.86A5.4,5.4,0,0,0,31,12.42H18.32a5.4,5.4,0,0,0-4.56-4.56m3-6.3a3.86,3.86,0,0,1-3,3v-3Zm18.78,3a3.86,3.86,0,0,1-3-3h3Zm-3,7.87a3.86,3.86,0,0,1,3-3v3ZM15.41,21.93a4.73,4.73,0,0,1-4.13-2.45,4.71,4.71,0,0,1,8.26,0,4.73,4.73,0,0,1-4.13,2.45M1.41,48.2V41.75l6.82-6.82a4.89,4.89,0,0,1,3.48-1.44h16a4.45,4.45,0,0,1-4.38,3.67H17v1.55H33l9.36-4.6a4.76,4.76,0,0,1,5.45.38L33.63,43.17l-26,5ZM23.92,29.3a15.52,15.52,0,0,1,12.32,6.08l-3.62,1.78H27.35a6,6,0,0,0,2-4.45v-.78h-14a15.48,15.48,0,0,1,8.63-2.64"
                  transform="translate(0.15)"/>
      </g>
</svg>
