<svg   xmlns="http://www.w3.org/2000/svg" viewBox="0 0 49.07 50">
      <defs>
            <style>.cls-1{fill:#fcbf65;}.cls-2{fill:#75a7d8;}.cls-3{fill:#3f4955;}</style>
      </defs>
      <g  >
            <circle class="cls-1" cx="12.2" cy="16.68" r="11.39"/>
            <path class="cls-1" d="M36.84,32.5a.83.83,0,0,1,.25.5,2.63,2.63,0,0,1,0,.38.75.75,0,0,1,.6-.33.74.74,0,0,1-.11-.22.71.71,0,0,1,0-.23Z" transform="translate(-0.02 0)"/>
            <path class="cls-2"
                  d="M47.81,36l-2-3.42-5.41-2.28-1.47,1.3c.63-.22,1.26-.43,1.81.15A.77.77,0,0,1,40.5,33a.72.72,0,0,1-.1.35.76.76,0,0,1-1,.27,1.27,1.27,0,0,0-.84-.3H38.4a.62.62,0,0,1,0,.78,10.36,10.36,0,0,0-1.33,2.64,4.9,4.9,0,0,1-.14,1.46.76.76,0,0,1-.13,1.5.73.73,0,0,1-.41-.12.69.69,0,0,1-1,.3l-.21-.16-.11.13a.77.77,0,0,1-1.19-.15,8.15,8.15,0,0,1-1-3.48c-.14-.93-.42-2.11.2-2.93a1.45,1.45,0,0,1,2.06-.3,1.72,1.72,0,0,1,.36.36,3.55,3.55,0,0,1,.1-.58.74.74,0,0,1,.26-.41l-2.59-.3a.88.88,0,0,1-.2.69,2.44,2.44,0,0,1-1.77,1,.74.74,0,0,1-.65-.37A3.87,3.87,0,0,1,30.26,32a.58.58,0,0,1,0-.1l-.16-.12a.76.76,0,0,1,0-1l-.77-.35-2.56,1.14-3.13,2.06L22.09,37l.38,9.29,1.14,2.56,2.56.57,5.69-1.14,3.42-1.42,6.55,2,4.27.57,1.71-1.71,1.14-4.27ZM29.75,39.66c-.33.85-.49,1.9-1.39,2.35l-.13.05a.63.63,0,0,1-.44.14l-.25,0-.4,0c-.61-.06-1.22-.1-1.83-.12a4.31,4.31,0,0,0-.85,1.32c-.33.78-1.34.26-1.41-.38-.14-1.28,0-2.66,1.26-3.22a.67.67,0,0,1,.35-.76,2.74,2.74,0,0,1,1.85-.3,5,5,0,0,1,1.76-.28.75.75,0,0,1,.59.35C29.37,38.67,30,39,29.75,39.66Zm17.48,4c-1.45-.27-6.05-2-4.68-4.12.83-1.31,2.32-.92,3.57,0a1.54,1.54,0,0,1,1.34,1.26,4.14,4.14,0,0,1,.79,1.37.71.71,0,0,1-.09.58A.81.81,0,0,1,47.23,43.69Z"
                  transform="translate(-0.02 0)"/>
            <path  class="cls-3"
                  d="M47.93,34.36a9.88,9.88,0,0,0-7-4.76.63.63,0,0,0-.6.13,7.08,7.08,0,0,1-5.29,1.73,6.79,6.79,0,0,1-4.53-1.73c-.79-.7-6.11,1.39-7.59,4.66a15,15,0,0,0-1.14,7.07,2,2,0,0,0,0,1.12c0,2.73-.35,4.91,1.7,6.52a4.23,4.23,0,0,0,3.65.75l8.29-2C44.51,50.06,44.07,50,44.81,50a4.17,4.17,0,0,0,2.58-.88,4.55,4.55,0,0,0,1.7-3.62V39.61A12.75,12.75,0,0,0,47.93,34.36Zm-1.1.57a11.71,11.71,0,0,1,1,4.43,3.54,3.54,0,0,0-2.13-1.25c-1.92-.64-3.65-.11-9.73.94V33c4.31,2.21,4.16,2.18,4.4,2.18a.62.62,0,0,0,.62-.56l.33-3.62A8.58,8.58,0,0,1,46.83,34.93Zm-5.56,6.18-4-1,4.19-.73A8.5,8.5,0,0,0,41.28,41.12Zm1.25.31a7.31,7.31,0,0,1,.25-2.29,6.12,6.12,0,0,1,3.34.42c.72.24.83.69,1.56,2.13.22.43,0,.66-.54,1.71C46.36,42.67,46.44,42.39,42.53,41.43Zm-9.52-9-2.13,1.09-.19-2.09A8,8,0,0,0,33,32.45Zm4.75,0a8,8,0,0,0,2.28-1l-.18,2ZM29.4,31c.34,3.82.25,3.86.64,4.07s.28.17,4.7-2.1v6.32l-.42.07-4.06-1c-.16-.09-1.71-.37-1.9-.4a7.4,7.4,0,0,0-4.15.49,2.69,2.69,0,0,0-1.15.75,11.73,11.73,0,0,1,1-4.21A8.58,8.58,0,0,1,29.4,31Zm-1.54,11c-2.5,0-2.59-.11-4.28,1.47l-.54-1v-.69c1.06-2.09.79-1.87,2.35-2.39a6.37,6.37,0,0,1,3.64,0A8.47,8.47,0,0,0,27.87,41.94Zm-1,6.72a3,3,0,0,1-2.59-.52,3.63,3.63,0,0,1-1.23-3.22c.53.39.89-.14,2.05-1.23.67-.63,1.32-.51,2.55-.51a8.37,8.37,0,0,0,0,1.82c0,.31,0,.76.5.88L33,47.15Zm17.17,0c-6.56-1.62-3.21-.77-15.14-3.87a7.22,7.22,0,0,1,1.45-5.18c12.43,3.17,14.79,3.71,15.28,4.07,1.33,1.24,1.4,1.4,1.79,1.34a.62.62,0,0,0,.44-.32v.8A3.08,3.08,0,0,1,44,48.66ZM13.15,22.15a.62.62,0,0,1,0-1.24A.62.62,0,0,1,13.15,22.15ZM20,14a.62.62,0,0,1-1.24,0A.62.62,0,0,1,20,14ZM2.74,9.64a.62.62,0,0,1,0,1.24A.62.62,0,0,1,2.74,9.64ZM33.81,21.78H32.12a.64.64,0,0,1,0-1.29h1.69a.64.64,0,1,1,0,1.29Zm5.31,0H37.43a.64.64,0,0,1,0-1.29h1.69A.64.64,0,0,1,39.12,21.78Zm-1.33,4.06c.67.89-1.3,1.74-2.42,1.74s-3.09-.85-2.42-1.74a.64.64,0,0,1,.9-.12,2.31,2.31,0,0,0,3,0A.64.64,0,0,1,37.79,25.84ZM27,17.31c-1.05.43-1,1.77-.78,2.89a2.59,2.59,0,0,0,1.13,1.72l.14.09h0c.75,4.9,4.07,8.45,7.9,8.45s7.14-3.55,7.89-8.44a2.7,2.7,0,0,0,1.27-1.83c.27-1.12.28-2.46-.77-2.89,1.89-6-5.14-9.58-7.83-9.63C31.26,7.61,25.65,13.78,27,17.31ZM43.28,19.9a1.34,1.34,0,0,1-.62,1,1.35,1.35,0,0,0-.67.92c-.64,4.28-3.43,7.39-6.63,7.39-2.63,0-5.68-2.19-6.63-7.41a.66.66,0,0,0,0-.08c-.34-1-1-.56-1.26-1.79-.24-1-.06-1.36,0-1.4h0c.51,1,.73,1.18,1.09,1.18a.64.64,0,0,0,.64-.59,7.91,7.91,0,0,1,1-3.2,12.4,12.4,0,0,0,8.68,3.21.64.64,0,0,0,.54-.32c.23-.39,0-.64-.3-1.25.91.69,1.7,1.27,2.87,2a.64.64,0,0,0,.91-.22c.14-.25.28-.52.42-.81A2,2,0,0,1,43.28,19.9ZM35.39,8.77c3.07,0,8.95,3.6,6.93,8.8a.64.64,0,0,0-.18.44l0,.1C38,15.33,37.95,14.51,37.26,15a.64.64,0,0,0-.25.73,18.52,18.52,0,0,0,.81,2.09,11.14,11.14,0,0,1-7.28-3.37.64.64,0,0,0-1,.08,9.2,9.2,0,0,0-1.27,2.63C27.38,14.69,32.06,8.77,35.39,8.77ZM20.74,25.7A12.15,12.15,0,0,0,21.18,9l.59-.59c.2.05,2.77.33,2.86.33.47,0,.25.1,4.43-4.08a.85.85,0,0,0-.51-1.45L26.34,3,26.1.76A.85.85,0,0,0,24.65.25L20.82,4.08a.85.85,0,0,0-.24.7l.29,2.63a.85.85,0,0,0,0,.14l-.59.59a12.13,12.13,0,0,0-16.73.41.62.62,0,1,0,.88.88,10.88,10.88,0,0,1,15-.41l-1.61,1.61a8.62,8.62,0,1,0,2.84,5,.62.62,0,0,0-1.22.21,7.39,7.39,0,1,1-2.5-4.36l-1.61,1.61a5.12,5.12,0,0,0-6.79,7.63,5,5,0,0,0,2.74,1.41.62.62,0,0,0,.12-1.23,3.88,3.88,0,1,1,3-6.93l-1.65,1.65a1.61,1.61,0,1,0,.5,2.61h0a1.61,1.61,0,0,0,.36-1.72l1.66-1.66a3.88,3.88,0,0,1-.42,5,.62.62,0,0,0,.88.88A5.12,5.12,0,0,0,16.2,14l4.1-4.1A10.89,10.89,0,1,1,1.71,14a.62.62,0,0,0-1.19-.35,12.13,12.13,0,0,0,20.21,12ZM24.47,7.44,23,7.27,24.23,6,26,4.23l1.52.17Zm.45-5.64.17,1.52-.57.57L22,6.36l-.17-1.52ZM15.53,46.9a.62.62,0,0,1,0-1.24A.62.62,0,0,1,15.53,46.9Zm5-7a1.62,1.62,0,0,1-1.27,2.62H16.54c-.48,0-.38.51-.38,1.37a.62.62,0,0,1-1.24,0v-1a1.62,1.62,0,0,1,1.62-1.62h2.71a.38.38,0,0,0,.3-.61c-8.22-10.18-7.7-9.66-8-9.66s.24-.53-8,9.67a.36.36,0,0,0,0,.39c.15.31.29.21,2.93.21a1.62,1.62,0,0,1,1.62,1.62v2.8a.62.62,0,0,1-1.24,0v-2.8a.38.38,0,0,0-.38-.38H3.88A1.62,1.62,0,0,1,2.6,39.87l7.69-9.53a1.62,1.62,0,0,1,2.54,0Zm13.89-1.19L33.19,39l-1.44-4.63L33,34ZM37.88,34l1.21.38L37.64,39l-1.21-.38Z"
                  transform="translate(-0.02 0)"/>
      </g>
</svg>
