<svg xmlns="http://www.w3.org/2000/svg" viewBox="0 0 49.94 46.62">
      <defs>
            <style>.cls-1{fill:#75a7d8;}.cls-2{fill:#fcbf65;}.cls-3{fill:#3f4955;}</style>
      </defs>
      <g>
            <polygon class="cls-1" points="29.96 16.67 26.13 20.23 25.3 21.05 23.39 19.14 19.83 16.4 19.83 15.03 25.58 15.85 29.41 16.4 29.96 16.67"/>
            <polygon class="cls-1" points="31.6 36.93 31.05 34.46 25.58 30.63 21.75 32.27 19.28 35.28 19.01 37.2 20.38 37.48 31.6 36.93"/>
            <rect class="cls-2" x="4.22" y="32" width="7.6" height="10.81"/>
            <circle class="cls-2" cx="45.29" cy="37.12" r="4.24"/>
            <rect class="cls-2" x="36.67" y="20.9" width="9.64" height="21.92"/>
            <circle class="cls-2" cx="8.17" cy="25.13" r="3.95"/>
            <path class="cls-3"
                  d="M9.33,19.68a.72.72,0,1,1,.72.72A.72.72,0,0,1,9.33,19.68Zm38.9,5.91a.72.72,0,1,0-.72-.72A.72.72,0,0,0,48.24,25.59Zm0,.56a.64.64,0,0,0-.64.64v4.46a.64.64,0,0,0,1.27,0V26.78A.64.64,0,0,0,48.24,26.14ZM32.33,38.41a1.28,1.28,0,0,1-1.25,1.31H19.58a1.28,1.28,0,0,1-1.25-1.31A4.79,4.79,0,0,1,20,34.72l.71-.56a18,18,0,0,1,3.86-2.32,1.81,1.81,0,0,1,1.46,0,18,18,0,0,1,3.86,2.32l.71.56A4.79,4.79,0,0,1,32.33,38.41Zm-1.27,0a3.5,3.5,0,0,0-1.24-2.71l-.69-.55A16.79,16.79,0,0,0,25.54,33a.53.53,0,0,0-.44,0,16.77,16.77,0,0,0-3.59,2.16l-.69.55a3.5,3.5,0,0,0-1.24,2.71.1.1,0,0,0,0,0H31A.09.09,0,0,0,31.05,38.41ZM23.88,22.61a4.76,4.76,0,0,0-2.1-2.23,7.78,7.78,0,0,1-2.58-2.2,1.13,1.13,0,0,1,.82-1.8,11.75,11.75,0,0,1,1.3,0A12.42,12.42,0,0,1,24.8,17a10.43,10.43,0,0,0,3.18.6H28A9.39,9.39,0,0,0,30,17.41a.91.91,0,0,1,1,.53.9.9,0,0,1-.18,1,7.63,7.63,0,0,1-1.95,1.47A4.77,4.77,0,0,0,27,22.22a3.94,3.94,0,0,0-.18.35,1.62,1.62,0,0,1-1.46,1A1.59,1.59,0,0,1,23.88,22.61ZM25,22.07a.32.32,0,0,0,.29.18.34.34,0,0,0,.3-.21c.08-.17.15-.32.24-.46a6,6,0,0,1,2.42-2.33,6.34,6.34,0,0,0,.67-.4q-.45,0-.91,0H28a11.63,11.63,0,0,1-3.55-.65,11.22,11.22,0,0,0-3.15-.62c-.28,0-.58,0-.89,0a6.5,6.5,0,0,0,2,1.63A6,6,0,0,1,25,22.07Zm-16.82,0a4.82,4.82,0,0,1,.11,9.63H8.21A4.84,4.84,0,0,1,3.39,27a4.82,4.82,0,0,1,4.7-4.93Zm0,1.27h-.1A3.55,3.55,0,0,0,4.67,27a3.56,3.56,0,0,0,3.54,3.46H8.3a3.54,3.54,0,0,0-.09-7.09Zm-5-.75A6.88,6.88,0,0,1,8,20.45h.18a.64.64,0,0,0,0-1.27H8a8.21,8.21,0,0,0-8,8.4.64.64,0,0,0,.64.62h0a.64.64,0,0,0,.62-.65A6.89,6.89,0,0,1,3.19,22.59Zm16.49,4.46a.72.72,0,1,0-.72.72A.72.72,0,0,0,19.68,27.05ZM32,22.86a.72.72,0,1,0,.72-.72A.72.72,0,0,0,32,22.86ZM41.87,47a.72.72,0,1,0,.72.72A.72.72,0,0,0,41.87,47ZM40,47H7.5a.64.64,0,1,0,0,1.27H40A.64.64,0,0,0,40,47Zm9.55-1.91a.64.64,0,0,1-.64.64H1.78a.64.64,0,1,1,0-1.27H3V32.41H13.23V43.23a2.55,2.55,0,0,1,2.55-2.55v-4a9.54,9.54,0,0,1,5.1-8.43A2.87,2.87,0,0,0,22,27.1a3.15,3.15,0,0,0,.43-1.59,3,3,0,0,0-1.58-2.71,9.54,9.54,0,0,1-5.11-8.43V9.49a2.55,2.55,0,0,1,0-5.09H34.87a2.55,2.55,0,1,1,0,5.09v4.88a9.54,9.54,0,0,1-5.1,8.43,2.88,2.88,0,0,0-1.15,1.12,3.14,3.14,0,0,0-.43,1.59,3,3,0,0,0,1.58,2.71,9.54,9.54,0,0,1,5.11,8.43v4a2.53,2.53,0,0,1,1.19.3V22.07H46.25V34a4.81,4.81,0,0,1,0,9.36V44.5h2.63A.64.64,0,0,1,49.51,45.14ZM12,36.44H4.32v1.91H12ZM4.32,39.63v1.91H12V39.63Zm0-5.95v1.49H12V33.68ZM12,44.5V42.81H4.32V44.5Zm1.62,0a2.53,2.53,0,0,1-.34-1.27V44.5Zm32-9.31H45a3.54,3.54,0,0,0,.1,7.09h.09l.33,0h.05a3.54,3.54,0,0,0,0-7ZM45,26.6H37.34v1.91H45Zm-7.64,3.18v1.91H45V29.78Zm0,3.18v1.91h4.77V35l.22-.17.15-.1.24-.15.16-.09.25-.13.17-.07.26-.1.19-.05L44,34l.19,0,.28,0,.2,0,.27,0V33Zm0,3.18v1.91h3c0-.07,0-.14,0-.21l0-.1c0-.12.05-.24.08-.36l0-.11c0-.11.07-.23.12-.34l.05-.11c0-.11.09-.21.14-.31l.07-.12.14-.24Zm0,3.18v1.91H41l0,0-.1-.17-.12-.24-.09-.17c0-.08-.07-.17-.1-.26l-.07-.17c0-.09-.05-.18-.08-.28s0-.11,0-.17,0-.21-.06-.32l0-.11Zm0-16v2H45v-2ZM15.78,8.22H34.87a1.27,1.27,0,0,0,0-2.55H15.78a1.27,1.27,0,0,0,0,2.55Zm1.27,32.46H33.6v-4a8.27,8.27,0,0,0-4.43-7.31,4.29,4.29,0,0,1-2.25-3.83,4.42,4.42,0,0,1,.6-2.23,4.15,4.15,0,0,1,1.66-1.6,8.27,8.27,0,0,0,4.43-7.31V9.49H17.05v4.88a8.27,8.27,0,0,0,4.43,7.31,4.29,4.29,0,0,1,2.25,3.83,4.42,4.42,0,0,1-.6,2.23,4.14,4.14,0,0,1-1.66,1.6,8.27,8.27,0,0,0-4.43,7.31Zm19,3V42.8A1.27,1.27,0,0,0,34.87,42H15.78a1.27,1.27,0,0,0,0,2.55H34.87A1.27,1.27,0,0,0,36.07,43.66ZM45,44.5v-1H44.8l-.23,0-.24,0-.22,0-.23-.06-.21-.06-.23-.08-.2-.08L43,43l-.19-.1-.21-.12-.18-.11-.2-.14-.13-.1v.06H37.34v.09a2.53,2.53,0,0,1,.08.62,2.51,2.51,0,0,1-.08.62v.66ZM35.79,17.13a10.71,10.71,0,0,1-2,4,.64.64,0,1,0,1,.8A12,12,0,0,0,37,17.45a.64.64,0,1,0-1.23-.33ZM15,32.41a.64.64,0,0,0,.58-.36,10.77,10.77,0,0,1,2.4-3.28.64.64,0,0,0-.87-.93,12,12,0,0,0-2.68,3.67.64.64,0,0,0,.57.91ZM32.54,3.21a.72.72,0,1,0-.72-.72A.72.72,0,0,0,32.54,3.21ZM18.33,3.13H30.64a.64.64,0,1,0,0-1.27H18.33a.64.64,0,0,0,0,1.27Z"
                  transform="translate(0 -1.78)"/>
      </g>
</svg>
